/* XPM */
static char * exit_xpm[] = {
"48 48 796 2",
"  	c None",
". 	c #750000",
"+ 	c #800707",
"@ 	c #A61E1E",
"# 	c #B92A2A",
"$ 	c #BA2A2A",
"% 	c #9B1717",
"& 	c #F54E4E",
"* 	c #FF5454",
"= 	c #F44D4D",
"- 	c #FE5353",
"; 	c #F34B4B",
"> 	c #C92E2E",
", 	c #B62020",
"' 	c #B11D1D",
") 	c #B31E1E",
"! 	c #B51F1F",
"~ 	c #B72121",
"{ 	c #B82222",
"] 	c #BA2323",
"^ 	c #BC2424",
"/ 	c #BE2525",
"( 	c #BF2727",
"_ 	c #C12828",
": 	c #C32929",
"< 	c #C52A2A",
"[ 	c #C62B2B",
"} 	c #C82D2D",
"| 	c #CA2F2F",
"1 	c #CC3030",
"2 	c #CD3131",
"3 	c #CE3232",
"4 	c #D03333",
"5 	c #D13434",
"6 	c #D33535",
"7 	c #D43636",
"8 	c #D53737",
"9 	c #D73737",
"0 	c #D83838",
"a 	c #DC3B3B",
"b 	c #E64141",
"c 	c #F94F4F",
"d 	c #A51D1D",
"e 	c #FD5252",
"f 	c #F24A4A",
"g 	c #B11F1F",
"h 	c #C04B4B",
"i 	c #C65C5C",
"j 	c #C75C5C",
"k 	c #C95D5D",
"l 	c #CA5E5E",
"m 	c #CB5F5F",
"n 	c #CC6060",
"o 	c #CE6161",
"p 	c #CF6161",
"q 	c #D06363",
"r 	c #D16363",
"s 	c #D36464",
"t 	c #D46565",
"u 	c #D56666",
"v 	c #D66767",
"w 	c #D86868",
"x 	c #D86969",
"y 	c #DA6969",
"z 	c #DB6A6A",
"A 	c #DB6B6B",
"B 	c #DD6B6B",
"C 	c #DD6C6C",
"D 	c #DF6D6D",
"E 	c #E06E6E",
"F 	c #E26F6F",
"G 	c #E37070",
"H 	c #E47070",
"I 	c #E26262",
"J 	c #DC3E3E",
"K 	c #DF3C3C",
"L 	c #F94E4E",
"M 	c #B82929",
"N 	c #FC5252",
"O 	c #DA9595",
"P 	c #DFA5A5",
"Q 	c #E0A5A5",
"R 	c #E1A6A6",
"S 	c #E2A6A6",
"T 	c #E2A7A7",
"U 	c #E3A7A7",
"V 	c #E4A7A7",
"W 	c #E4A8A8",
"X 	c #E5A9A9",
"Y 	c #E6A9A9",
"Z 	c #E7AAAA",
"` 	c #E8AAAA",
" .	c #E8ABAB",
"..	c #E9ABAB",
"+.	c #EAACAC",
"@.	c #EBADAD",
"#.	c #ECADAD",
"$.	c #ECAEAE",
"%.	c #EDAEAE",
"&.	c #EEAFAF",
"*.	c #EFAFAF",
"=.	c #EFB0B0",
"-.	c #F0B0B0",
";.	c #F1B1B1",
">.	c #EFA4A4",
",.	c #DF4040",
"'.	c #E94444",
").	c #FC5151",
"!.	c #BF4848",
"~.	c #DD9D9D",
"{.	c #DE9E9E",
"].	c #DE9F9F",
"^.	c #DF9F9F",
"/.	c #E0A0A0",
"(.	c #E1A0A0",
"_.	c #E6AFAF",
":.	c #EFCACA",
"<.	c #F2D5D5",
"[.	c #F5DFDF",
"}.	c #F8E8E8",
"|.	c #F6E6E6",
"1.	c #F2DCDC",
"2.	c #F1D4D4",
"3.	c #F1CBCB",
"4.	c #ECB2B2",
"5.	c #E9A6A6",
"6.	c #EAA6A6",
"7.	c #EAA7A7",
"8.	c #EBA7A7",
"9.	c #ECA8A8",
"0.	c #EDA9A9",
"a.	c #EEA9A9",
"b.	c #EFAAAA",
"c.	c #F0ABAB",
"d.	c #F1ACAC",
"e.	c #E66363",
"f.	c #E44040",
"g.	c #B82828",
"h.	c #FB5050",
"i.	c #C45555",
"j.	c #DB9696",
"k.	c #DC9797",
"l.	c #DD9797",
"m.	c #DD9898",
"n.	c #E2A4A4",
"o.	c #F0D0D0",
"p.	c #FAEFEF",
"q.	c #FFFFFF",
"r.	c #F3EAEA",
"s.	c #E9CACA",
"t.	c #E9A9A9",
"u.	c #EAA1A1",
"v.	c #EBA1A1",
"w.	c #ECA2A2",
"x.	c #EDA3A3",
"y.	c #EEA3A3",
"z.	c #EEA4A4",
"A.	c #F0A5A5",
"B.	c #E96F6F",
"C.	c #E34040",
"D.	c #B72828",
"E.	c #FA5050",
"F.	c #C25151",
"G.	c #D78E8E",
"H.	c #D88E8E",
"I.	c #D88F8F",
"J.	c #D99090",
"K.	c #DA9090",
"L.	c #EFCCCC",
"M.	c #FEFBFB",
"N.	c #FBFAFA",
"O.	c #DFC2C2",
"P.	c #E59D9D",
"Q.	c #EB9C9C",
"R.	c #EC9D9D",
"S.	c #ED9D9D",
"T.	c #ED9E9E",
"U.	c #EE9E9E",
"V.	c #EF9F9F",
"W.	c #F0A0A0",
"X.	c #E96C6C",
"Y.	c #E54141",
"Z.	c #C14E4E",
"`.	c #D58686",
" +	c #D68787",
".+	c #D78888",
"++	c #D88888",
"@+	c #E3ACAC",
"#+	c #FCF6F6",
"$+	c #F7F3F3",
"%+	c #D3A2A2",
"&+	c #E99494",
"*+	c #EB9696",
"=+	c #EC9797",
"-+	c #ED9797",
";+	c #EE9898",
">+	c #EF9999",
",+	c #F09999",
"'+	c #EA6B6B",
")+	c #E64242",
"!+	c #D27F7F",
"~+	c #D37F7F",
"{+	c #D38080",
"]+	c #D48181",
"^+	c #D68181",
"/+	c #E9BEBE",
"(+	c #FEFEFE",
"_+	c #D0AFAF",
":+	c #E38C8C",
"<+	c #EC9191",
"[+	c #ED9292",
"}+	c #EE9393",
"|+	c #EF9393",
"1+	c #F09494",
"2+	c #EB6969",
"3+	c #E74343",
"4+	c #B62727",
"5+	c #F74E4E",
"6+	c #BE4646",
"7+	c #CF7777",
"8+	c #D07777",
"9+	c #D17878",
"0+	c #D27979",
"a+	c #D37A7A",
"b+	c #EFCDCD",
"c+	c #E8DDDD",
"d+	c #C2A5A5",
"e+	c #A27575",
"f+	c #A06969",
"g+	c #A16161",
"h+	c #AA6565",
"i+	c #B47474",
"j+	c #B78282",
"k+	c #CCACAC",
"l+	c #EADFDF",
"m+	c #DAC2C2",
"n+	c #DA8181",
"o+	c #ED8B8B",
"p+	c #ED8C8C",
"q+	c #EE8D8D",
"r+	c #EF8D8D",
"s+	c #F08E8E",
"t+	c #EB6666",
"u+	c #E84343",
"v+	c #B52727",
"w+	c #F64D4D",
"x+	c #BD4444",
"y+	c #CD7070",
"z+	c #CE7070",
"A+	c #CE7171",
"B+	c #CF7272",
"C+	c #D17373",
"D+	c #E7B6B6",
"E+	c #F1EBEB",
"F+	c #A77B7B",
"G+	c #905050",
"H+	c #B66565",
"I+	c #D07474",
"J+	c #DF7C7C",
"K+	c #DF7D7D",
"L+	c #E07D7D",
"M+	c #E17E7E",
"N+	c #E27F7F",
"O+	c #E37F7F",
"P+	c #DB7B7B",
"Q+	c #D39797",
"R+	c #F5EDED",
"S+	c #C8A7A7",
"T+	c #DD7D7D",
"U+	c #ED8787",
"V+	c #EE8787",
"W+	c #EF8888",
"X+	c #EF8989",
"Y+	c #EC6464",
"Z+	c #B42626",
"`+	c #F44B4B",
" @	c #B42828",
".@	c #C96363",
"+@	c #CC6A6A",
"@@	c #CD6B6B",
"#@	c #CE6C6C",
"$@	c #DE9898",
"%@	c #D1B9B9",
"&@	c #8D5151",
"*@	c #A55757",
"=@	c #D57171",
"-@	c #DC7575",
";@	c #DD7575",
">@	c #DE7676",
",@	c #DF7777",
"'@	c #E07777",
")@	c #E07878",
"!@	c #E27979",
"~@	c #E37A7A",
"{@	c #E47B7B",
"]@	c #E48282",
"^@	c #E5C5C5",
"/@	c #BB8989",
"(@	c #E77D7D",
"_@	c #EE8282",
":@	c #EF8383",
"<@	c #EC6262",
"[@	c #EA4545",
"}@	c #B32525",
"|@	c #B11C1C",
"1@	c #B62929",
"2@	c #C95E5E",
"3@	c #CC6565",
"4@	c #D06E6E",
"5@	c #FBF3F3",
"6@	c #F5F0F0",
"7@	c #A87A7A",
"8@	c #8D4747",
"9@	c #BF6060",
"0@	c #D96E6E",
"a@	c #DA6E6E",
"b@	c #DB6F6F",
"c@	c #DC7070",
"d@	c #DD7070",
"e@	c #DE7171",
"f@	c #DF7272",
"g@	c #E07272",
"h@	c #E17373",
"i@	c #E27474",
"j@	c #E37474",
"k@	c #E47575",
"l@	c #E57676",
"m@	c #E67777",
"n@	c #E09999",
"o@	c #F7F1F1",
"p@	c #F6F1F1",
"q@	c #B06363",
"r@	c #EE7D7D",
"s@	c #EF7D7D",
"t@	c #ED5F5F",
"u@	c #EB4545",
"v@	c #F14949",
"w@	c #B21D1D",
"x@	c #B41F1F",
"y@	c #C85454",
"z@	c #E7B4B4",
"A@	c #A77676",
"B@	c #954646",
"C@	c #D06262",
"D@	c #D76666",
"E@	c #D86767",
"F@	c #DA6868",
"G@	c #DC6969",
"H@	c #DC6A6A",
"I@	c #E07171",
"J@	c #DF6C6C",
"K@	c #E06D6D",
"L@	c #E16D6D",
"M@	c #E26E6E",
"N@	c #E46F6F",
"O@	c #E57070",
"P@	c #E77171",
"Q@	c #EC9B9B",
"R@	c #CCAAAA",
"S@	c #CE6666",
"T@	c #EF7777",
"U@	c #EF7878",
"V@	c #ED5D5D",
"W@	c #EC4646",
"X@	c #B22424",
"Y@	c #EF4848",
"Z@	c #B31D1D",
"`@	c #B82121",
" #	c #C13D3D",
".#	c #FDF9F9",
"+#	c #CFB4B4",
"@#	c #853B3B",
"##	c #C85959",
"$#	c #D66060",
"%#	c #D86161",
"&#	c #D96262",
"*#	c #DA6363",
"=#	c #F0BCBC",
"-#	c #FCF5F5",
";#	c #FBF5F5",
">#	c #E2B6B6",
",#	c #E16868",
"'#	c #E26969",
")#	c #E36969",
"!#	c #E46A6A",
"~#	c #E66B6B",
"{#	c #E66C6C",
"]#	c #E86C6C",
"^#	c #F4C6C6",
"/#	c #FBF9F9",
"(#	c #A95F5F",
"_#	c #ED7171",
":#	c #EF7272",
"<#	c #EE5B5B",
"[#	c #B12424",
"}#	c #ED4747",
"|#	c #B92222",
"1#	c #DF9898",
"2#	c #F1E8E8",
"3#	c #884040",
"4#	c #AE4848",
"5#	c #D45858",
"6#	c #D55959",
"7#	c #D65A5A",
"8#	c #D75B5B",
"9#	c #D85B5B",
"0#	c #D95C5C",
"a#	c #E99F9F",
"b#	c #BC8C8C",
"c#	c #CD5959",
"d#	c #E36363",
"e#	c #E46464",
"f#	c #E56565",
"g#	c #E76666",
"h#	c #E86666",
"i#	c #FAEDED",
"j#	c #CCA6A6",
"k#	c #C75959",
"l#	c #EF6C6C",
"m#	c #EE5959",
"n#	c #EE4747",
"o#	c #B02323",
"p#	c #B72020",
"q#	c #BB2323",
"r#	c #F4DDDD",
"s#	c #A26969",
"t#	c #933939",
"u#	c #D15151",
"v#	c #D35252",
"w#	c #D55353",
"x#	c #D55454",
"y#	c #D75555",
"z#	c #D85656",
"A#	c #D95757",
"B#	c #F7DDDD",
"C#	c #E7D7D7",
"D#	c #A74444",
"E#	c #E25D5D",
"F#	c #E35E5E",
"G#	c #E45F5F",
"H#	c #E66060",
"I#	c #E76060",
"J#	c #E76161",
"K#	c #E96262",
"L#	c #EEE1E1",
"M#	c #A54646",
"N#	c #F06666",
"O#	c #EF5151",
"P#	c #EF4747",
"Q#	c #AF2323",
"R#	c #B92121",
"S#	c #BA2222",
"T#	c #C74646",
"U#	c #E6D4D4",
"V#	c #7F2828",
"W#	c #C44545",
"X#	c #D14B4B",
"Y#	c #D34C4C",
"Z#	c #D44D4D",
"`#	c #D54E4E",
" $	c #D64E4E",
".$	c #D74F4F",
"+$	c #D95050",
"@$	c #FBEFEF",
"#$	c #F4ECEC",
"$$	c #8C3535",
"%$	c #E05656",
"&$	c #E35858",
"*$	c #E55959",
"=$	c #E65A5A",
"-$	c #E85B5B",
";$	c #E95C5C",
">$	c #EA5D5D",
",$	c #FAE0E0",
"'$	c #A45858",
")$	c #E44C4C",
"!$	c #F04848",
"~$	c #AE2222",
"{$	c #E84444",
"]$	c #BB2222",
"^$	c #BD2525",
"/$	c #DA8383",
"($	c #BC8B8B",
"_$	c #8D1F1F",
":$	c #CB3535",
"<$	c #D14343",
"[$	c #D24646",
"}$	c #D44747",
"|$	c #D54848",
"1$	c #D64949",
"2$	c #D74A4A",
"3$	c #D84B4B",
"4$	c #FBEEEE",
"5$	c #8B3232",
"6$	c #DF5151",
"7$	c #E45353",
"8$	c #E55454",
"9$	c #E65454",
"0$	c #E75555",
"a$	c #E85656",
"b$	c #E95757",
"c$	c #EA5757",
"d$	c #F4AAAA",
"e$	c #C28787",
"f$	c #C93C3C",
"g$	c #AE2121",
"h$	c #E74242",
"i$	c #BC2323",
"j$	c #BF2626",
"k$	c #E39E9E",
"l$	c #984D4D",
"m$	c #A62525",
"n$	c #CC2F2F",
"o$	c #CD3030",
"p$	c #D13939",
"q$	c #D34141",
"r$	c #D44242",
"s$	c #D64343",
"t$	c #D74444",
"u$	c #D94444",
"v$	c #8B2E2E",
"w$	c #E04B4B",
"x$	c #E44D4D",
"y$	c #E54E4E",
"z$	c #E64F4F",
"A$	c #E75050",
"B$	c #E85151",
"C$	c #E95151",
"D$	c #EA5151",
"E$	c #CFA0A0",
"F$	c #B63737",
"G$	c #AD2121",
"H$	c #C12727",
"I$	c #E9B4B4",
"J$	c #8B3434",
"K$	c #B82A2A",
"L$	c #CF3131",
"M$	c #D03232",
"N$	c #D43A3A",
"O$	c #D53D3D",
"P$	c #D73E3E",
"Q$	c #D83F3F",
"R$	c #FBEDED",
"S$	c #F4EBEB",
"T$	c #8C2B2B",
"U$	c #E04646",
"V$	c #E44848",
"W$	c #E64949",
"X$	c #E74A4A",
"Y$	c #E84B4B",
"Z$	c #E94C4C",
"`$	c #EA4B4B",
" %	c #ED5C5C",
".%	c #DAB6B6",
"+%	c #AD3535",
"@%	c #F34A4A",
"#%	c #AC2020",
"$%	c #C02626",
"%%	c #C22828",
"&%	c #F0CBCB",
"*%	c #802121",
"=%	c #C02D2D",
"-%	c #D13333",
";%	c #D33434",
">%	c #D43535",
",%	c #D63636",
"'%	c #D73838",
")%	c #D83939",
"!%	c #8C2727",
"~%	c #E14040",
"{%	c #E54242",
"]%	c #E64343",
"^%	c #E74444",
"/%	c #EB4646",
"(%	c #EC4949",
"_%	c #E5CCCC",
":%	c #A33232",
"<%	c #AB1F1F",
"[%	c #E13E3E",
"}%	c #C22727",
"|%	c #C42A2A",
"1%	c #F1CCCC",
"2%	c #812121",
"3%	c #DA3939",
"4%	c #8D2727",
"5%	c #E24040",
"6%	c #ED4A4A",
"7%	c #E5CDCD",
"8%	c #9C3030",
"9%	c #F54C4C",
"0%	c #AA1E1E",
"a%	c #C32828",
"b%	c #ECB6B6",
"c%	c #8D3636",
"d%	c #C62F2F",
"e%	c #DB3A3A",
"f%	c #8D2828",
"g%	c #E34141",
"h%	c #F05C5C",
"i%	c #DBB6B6",
"j%	c #A23232",
"k%	c #A81E1E",
"l%	c #C82C2C",
"m%	c #E6A1A1",
"n%	c #9B4F4F",
"o%	c #BF2E2E",
"p%	c #DD3B3B",
"q%	c #FCEDED",
"r%	c #8E2828",
"s%	c #E44242",
"t%	c #F37070",
"u%	c #D0A2A2",
"v%	c #AD3636",
"w%	c #F74D4D",
"x%	c #A71D1D",
"y%	c #C92D2D",
"z%	c #E18888",
"A%	c #BF8D8D",
"B%	c #B32C2C",
"C%	c #DE3C3C",
"D%	c #8F2929",
"E%	c #F7A2A2",
"F%	c #C48888",
"G%	c #B83A3A",
"H%	c #F84E4E",
"I%	c #A61C1C",
"J%	c #CB2E2E",
"K%	c #D34E4E",
"L%	c #E7D5D5",
"M%	c #9D2727",
"N%	c #DF3D3D",
"O%	c #ED4646",
"P%	c #FCDCDC",
"Q%	c #A84F4F",
"R%	c #C83F3F",
"S%	c #A51B1B",
"T%	c #F7DFDF",
"U%	c #A75E5E",
"V%	c #D33636",
"W%	c #D93838",
"X%	c #FCECEC",
"Y%	c #F4EAEA",
"Z%	c #902A2A",
"`%	c #F57B7B",
" &	c #EFDFDF",
".&	c #993030",
"+&	c #E54848",
"@&	c #F84F4F",
"#&	c #A41B1B",
"$&	c #CA2E2E",
"%&	c #F1E6E6",
"&&	c #AF3737",
"*&	c #E23F3F",
"=&	c #F6C3C3",
"-&	c #DCBDBD",
";&	c #922B2B",
">&	c #F04949",
",&	c #F25454",
"'&	c #FDEBEB",
")&	c #CF9E9E",
"!&	c #A43434",
"~&	c #A31A1A",
"{&	c #D23333",
"]&	c #CB2F2F",
"^&	c #FCF8F8",
"/&	c #D1ACAC",
"(&	c #C73434",
"_&	c #E03D3D",
":&	c #EC7575",
"<&	c #AE6565",
"[&	c #AF3434",
"}&	c #FABBBB",
"|&	c #FBF8F8",
"1&	c #A54747",
"2&	c #C23D3D",
"3&	c #A21919",
"4&	c #B36767",
"5&	c #DA3B3B",
"6&	c #E77373",
"7&	c #DFBEBE",
"8&	c #DDBDBD",
"9&	c #AE6363",
"0&	c #962C2C",
"a&	c #F68080",
"b&	c #D09F9F",
"c&	c #9D3131",
"d&	c #F04C4C",
"e&	c #F95050",
"f&	c #A11818",
"g&	c #CE3131",
"h&	c #D84242",
"i&	c #C66C6C",
"j&	c #CD3C3C",
"k&	c #C83B3B",
"l&	c #F68181",
"m&	c #FEF0F0",
"n&	c #F7EFEF",
"o&	c #A03C3C",
"p&	c #C84040",
"q&	c #FB5151",
"r&	c #A01717",
"s&	c #CF3232",
"t&	c #E47474",
"u&	c #DEB0B0",
"v&	c #DF4949",
"w&	c #F25555",
"x&	c #FABCBC",
"y&	c #B86E6E",
"z&	c #FA5151",
"A&	c #9F1717",
"B&	c #E89797",
"C&	c #F3E7E7",
"D&	c #D86F6F",
"E&	c #F57F7F",
"F&	c #FDECEC",
"G&	c #CA9393",
"H&	c #9D3232",
"I&	c #E54949",
"J&	c #9D1616",
"K&	c #D23434",
"L&	c #ECB5B5",
"M&	c #EFD8D8",
"N&	c #EE6D6D",
"O&	c #EE5A5A",
"P&	c #ED4949",
"Q&	c #EE4A4A",
"R&	c #F37171",
"S&	c #F7A3A3",
"T&	c #FCDEDE",
"U&	c #D9B2B2",
"V&	c #9A3131",
"W&	c #D94545",
"X&	c #9C1515",
"Y&	c #C42929",
"Z&	c #E39797",
"`&	c #9B3131",
" *	c #9B1414",
".*	c #D53636",
"+*	c #E27676",
"@*	c #F7F0F0",
"#*	c #A03333",
"$*	c #E04747",
"%*	c #991313",
"&*	c #E14B4B",
"**	c #DAA1A1",
"=*	c #B33939",
"-*	c #EC4B4B",
";*	c #FD5353",
">*	c #981212",
",*	c #BB2424",
"'*	c #D83636",
")*	c #DC5656",
"!*	c #D7A0A0",
"~*	c #EEDFDF",
"{*	c #EFDEDE",
"]*	c #CF9D9D",
"^*	c #AA3636",
"/*	c #DE4747",
"(*	c #971111",
"_*	c #D63737",
":*	c #DB4040",
"<*	c #C95858",
"[*	c #CB8989",
"}*	c #CFA1A1",
"|*	c #DBB7B7",
"1*	c #D0A1A1",
"2*	c #C38787",
"3*	c #A74E4E",
"4*	c #A53434",
"5*	c #C33D3D",
"6*	c #951010",
"7*	c #EA4444",
"8*	c #E74646",
"9*	c #DD4343",
"0*	c #D44141",
"a*	c #CA3F3F",
"b*	c #CA3E3E",
"c*	c #D54242",
"d*	c #DF4646",
"e*	c #EB4A4A",
"f*	c #8B0B0B",
"g*	c #DC3A3A",
"h*	c #F44C4C",
"i*	c #790202",
"j*	c #AD1A1A",
"k*	c #E23E3E",
"l*	c #E33F3F",
"m*	c #E84242",
"n*	c #E94343",
"o*	c #F14A4A",
"p*	c #E44141",
"q*	c #850808",
"r*	c #AC1A1A",
"s*	c #B01C1C",
"t*	c #8A0A0A",
"u*	c #920E0E",
"      . . . . . . . . . . . . . . . . . . . . . . . . . . . . . . . . . . . . . . . . . .       ",
"    . + @ # $ $ $ $ $ $ $ $ $ $ $ $ $ $ $ $ $ $ $ $ $ $ $ $ $ $ $ $ $ $ $ $ $ $ $ $ # @ + .     ",
"  . % & * * * * * * * * * * * * * * * * * * * * * * * * * * * * * * * * * * * * * * * * & % .   ",
". + = - ; > , ' ' ' ' ' ' ' ' ' ) ! ~ { ] ^ / ( _ : < [ } > | 1 2 3 4 5 6 7 8 9 0 a b c - = + . ",
". d e f ) g h i i i i i i i i j k l m n o p q r s t u v w x y z A B C D E E F G H I J K L e d . ",
". M N > g O P P P P P P P Q Q R S T U V W X Y Y Z `  ...+.+.@.@.#.$.%.%.&.*.=.-.-.;.>.,.'.N M . ",
". M )., !.~.~.~.~.~.~.~.~.{.].^./.(.(._.:.<.[.}.|.1.2.3.4.5.6.7.8.9.9.0.0.a.b.b.c.c.d.e.f.).M . ",
". g.h.' i.O O O O O O O j.k.l.m.n.o.p.q.q.q.q.q.q.q.q.q.q.r.s.t.u.v.v.w.w.x.y.z.>.A.A.B.C.h.g.. ",
". D.E.' F.G.G.G.G.G.H.I.J.K.l.L.M.q.q.q.q.q.q.q.q.q.q.q.q.q.q.N.O.P.Q.Q.R.S.T.U.V.V.W.X.Y.E.D.. ",
". D.c ' Z.`.`.`.`.`. +.+++@+#+q.q.q.q.q.q.q.q.q.q.q.q.q.q.q.q.q.q.$+%+&+*+=+-+;+;+>+,+'+)+c D.. ",
". D.c ' h !+!+!+~+{+]+^+/+(+q.q.q.q.q.q.q.q.q.(+(+q.q.q.q.q.q.q.q.q.(+_+:+<+[+[+}+|+1+2+3+c D.. ",
". 4+5+' 6+7+7+8+9+0+a+b+q.q.q.q.q.q.q.c+d+e+f+g+h+i+j+k+l+q.q.q.q.q.q.q.m+n+o+p+q+r+s+t+u+5+4+. ",
". v+w+' x+y+z+A+B+C+D+q.q.q.q.q.q.E+F+G+H+I+J+K+L+M+N+O+P+Q+R+q.q.q.q.q.q.S+T+U+V+W+X+Y+'.w+v+. ",
". Z+`+'  @.@+@@@#@$@(+q.q.q.q.q.%@&@*@=@-@;@>@,@'@)@!@!@~@{@]@^@q.q.q.q.q.(+/@(@_@:@:@<@[@`+Z+. ",
". }@f ' |@1@2@3@4@5@q.q.q.q.6@7@8@9@0@a@b@c@d@e@f@g@h@i@j@k@l@m@n@o@q.q.q.q.p@q@r@s@s@t@u@f }@. ",
". }@v@w@w@x@g.y@z@q.q.q.q.q.A@B@C@D@E@F@F@G@H@e@I@J@K@L@M@N@H O@P@Q@q.q.q.q.q.R@S@T@U@V@W@v@}@. ",
". X@Y@Z@x@, `@ #.#q.q.q.q.+#@###$#$#%#&#*#G@=#-#;#>#B ,#'#)#!#~#{#]#^#q.q.q.q./#(#_#:#<#W@Y@X@. ",
". [#}#! , `@|#1#q.q.q.q.2#3#4#5#6#7#8#9#0#a#q.q.q.q.b#c#I d#e#f#g#h#B.i#q.q.q.q.j#k#l#m#n#}#[#. ",
". o#W@p#`@|#q#r#q.q.q.q.s#t#u#v#w#x#y#z#A#B#q.q.q.q.C#D#E#F#G#H#I#J#K#r+q.q.q.q.L#M#N#O#P#W@o#. ",
". Q#[@R#S#q#T#q.q.q.q.U#V#W#X#Y#Z#`# $.$+$@$q.q.q.q.#$$$%$&$*$=$=$-$;$>$,$q.q.q.q.'$)$!$!$[@Q#. ",
". ~${$]$q#^$/$q.q.q.q.($_$:$<$[$}$|$1$2$3$4$q.q.q.q.#$5$6$7$8$9$0$a$b$c$d$q.q.q.q.e$f$v@v@{$~$. ",
". g$h$i$^$j$k$q.q.q.q.l$m$n$o$p$q$r$s$t$u$4$q.q.q.q.#$v$w$x$y$z$A$B$C$D$T@q.q.q.q.E$F$f f h$g$. ",
". G$Y./ j$H$I$q.q.q.q.J$K$o$L$M$5 N$O$P$Q$R$q.q.q.q.S$T$U$V$W$X$Y$Y$Z$`$ %q.q.q.q..%+%; @%Y.G$. ",
". #%C.$%H$%%&%q.q.q.(+*%=%L$M$-%;%>%,%'%)%R$q.q.q.q.S$!%~%{%]%^%{$'.[@/%(%(+q.q.q._%:%`+`+C.#%. ",
". <%[%}%%%|%1%q.q.q.(+2%| M$-%;%>%,%9 0 3%R$q.q.q.q.S$4%5%)+3+u+'.[@/%W@6%(+q.q.q.7%8%9%9%[%<%. ",
". 0%K a%|%[ b%q.q.q.q.c%d%-%;%>%,%9 0 3%e%R$q.q.q.q.S$f%g%3+u+'.[@/%W@n#h%q.q.q.q.i%j%w+w+K 0%. ",
". k%a < [ l%m%q.q.q.q.n%o%;%>%,%9 0 3%e%p%q%q.q.q.q.S$r%s%u+'.[@/%W@n#Y@t%q.q.q.q.u%v%5+w%a k%. ",
". x%3%[ l%y%z%q.q.q.q.A%B%>%,%9 0 3%e%p%C%q%q.q.q.q.S$D%{%'.[@/%W@n#Y@!$E%q.q.q.q.F%G%H%5+3%x%. ",
". I%0 l%y%J%K%q.q.q.q.L%M%,%9 0 3%e%p%C%N%q%q.q.q.q.S$D%]%[@/%O%n#Y@!$v@P%q.q.q.q.Q%R%c 5+0 I%. ",
". S%,%} J%n$o$T%q.q.q.q.U%V%W%3%e%p%C%N%[%X%q.q.q.q.Y%Z%^%/%O%n#Y@!$v@`%q.q.q.q. &.&+&c @&,%S%. ",
". #&>%$&n$o$L$a#q.q.q.q.%&&&3%e%p%C%N%[%*&=&q.q.q.q.-&;&[@O%n#Y@>&v@,&'&q.q.q.q.)&!&c E.@&>%#&. ",
". ~&{&]&o$L$M$2$^&q.q.q.q./&(&p%C%_&[%*&f.:&q.q.q.q.<&[&O%n#Y@>&v@f }&q.q.q.q.|&1&2&E.E.c {&~&. ",
". 3&L$1 L$M${&;%u.q.q.q.q.q.4&5&_&[%*&f.Y.)+6&7&8&9&0&Q$n#Y@>&v@f a&q.q.q.q.q.b&c&d&E.h.e&L$3&. ",
". f&o$g&M${&;%>%h&p.q.q.q.q.R+i&[%*&f.Y.)+3+u+3+j&k&'.n#Y@>&v@f l&m&q.q.q.q.n&o&p&E.h.q&E.o$f&. ",
". r&J%s&{&;%>%,%9 t&(+q.q.q.q.q.u&v&Y.)+3+u+'.[@W@O%n#Y@>&v@w&x&q.q.q.q.q.(+y&!&& h.q&).z&J%r&. ",
". A&y%-%;%>%,%9 W%3%B&q.q.q.q.q.q.C&D&3+u+'.[@W@O%n#Y@>&v@E&F&q.q.q.q.q.q.G&H&I&h.q&).N q&y%A&. ",
". J&[ K&>%,%9 W%3%e%p%L&q.q.q.q.q.q.q.M&R.N&O&P&Q&h%R&S&T&q.q.q.q.q.q.q.U&V&W&h.q&).N e q&[ J&. ",
". X&Y&6 ,%9 W%3%e%p%C%_&Z&(+q.q.q.q.q.q.q.q.q.(+(+q.q.q.q.q.q.q.q.q.(+G&`&<$h.q&).N e e N Y&X&. ",
".  *H$.*9 W%3%e%p%C%_&[%*&+*@*q.q.q.q.q.q.q.q.q.q.q.q.q.q.q.q.q.q.n&y&#*$*h.q&).N e e - N H$ *. ",
". %*/ ,%W%3%e%p%C%_&[%*&f.Y.&***/#q.q.q.q.q.q.q.q.q.q.q.q.q.q.|&b&o&=*-*h.q&).N e e - - ;*/ %*. ",
". >*,*'*3%e%p%C%_&[%*&f.Y.)+3+{$)*!*~*q.q.q.q.q.q.q.q.q.q.{*]*1&^*/*E.h.q&).N e e - - * e ,*>*. ",
". (*|#_*e%p%C%_&[%*&f.Y.)+3+{$'.u@W@:*<*[*}*.%_%7%|*1*2*3*4*5*$*c E.h.q&).N e e - - * * @&|#(*. ",
". 6*, g&p%C%_&[%*&f.Y.)+3+{$7*u@W@O%n#Y@>&8*9*0*a*b*c*d*e*c c E.E.h.q&).N e e - - * * * )+, 6*. ",
". f*) `@g*_&[%*&f.Y.)+3+{$7*u@W@O%n#Y@>&v@f ; h*9%w+5+H%c c E.E.h.q&).N e e - - * * * q&^$) f*. ",
". i*j*|@`@-%p%k*l*f.Y.)+m*n*7*7*u@W@}#n#Y@>&o*f ; h*9%w+w+5+5+H%@&c e&E.E.q&q&N N 5+p*,*|@j*i*. ",
"  . q*r*s*s*s*s*s*s*s*s*s*s*s*s*s*s*s*s*s*s*s*s*s*s*s*s*s*s*s*s*s*s*s*s*s*s*s*s*s*s*s*s*r*q*.   ",
"    . i*t*u*u*u*u*u*u*u*u*u*u*u*u*u*u*u*u*u*u*u*u*u*u*u*u*u*u*u*u*u*u*u*u*u*u*u*u*u*u*t*i*.     ",
"      . . . . . . . . . . . . . . . . . . . . . . . . . . . . . . . . . . . . . . . . . .       "};
