/* XPM */
static char *gparted[] = {
/* columns rows colors chars-per-pixel */
"48 48 230 2",
"   c #262A2C",
".  c #292D2F",
"X  c #2A2F31",
"o  c #2E3436",
"O  c #323534",
"+  c #303638",
"@  c #353A3B",
"#  c #393E3E",
"$  c #3B403F",
"%  c #5A7E37",
"&  c #5D7C3F",
"*  c #7A6424",
"=  c #3A3F40",
"-  c #3E4242",
";  c #424645",
":  c #454846",
">  c #484A47",
",  c #454949",
"<  c #4B4E4B",
"1  c #4D514E",
"2  c #50534F",
"3  c #4E5251",
"4  c #525552",
"5  c #565854",
"6  c #5B5D59",
"7  c #586946",
"8  c #5D605D",
"9  c #7F6547",
"0  c #62784E",
"q  c #60635F",
"w  c #7B6850",
"e  c #657456",
"r  c #636562",
"t  c #666965",
"y  c #696B66",
"u  c #6B6E6A",
"i  c #6E716C",
"p  c #737571",
"a  c #767977",
"s  c #797B77",
"d  c #7B7D7B",
"f  c #A62929",
"g  c #AA2A28",
"h  c #B52D2D",
"j  c #AF3B3B",
"k  c #DF302F",
"l  c #C43C3C",
"z  c #E43434",
"x  c #E53B3B",
"c  c #E93A39",
"v  c #9F5D1A",
"b  c #A7590B",
"n  c #AB5E11",
"m  c #B46110",
"M  c #B4681E",
"N  c #8B5F31",
"B  c #B74F4F",
"V  c #826340",
"C  c #BE6464",
"Z  c #CD4242",
"A  c #D44747",
"S  c #DC4E4E",
"D  c #D85248",
"F  c #D75F48",
"G  c #D15454",
"H  c #E34948",
"J  c #E25555",
"K  c #CB6C6C",
"L  c #C77A79",
"P  c #538622",
"I  c #568B24",
"U  c #56842A",
"Y  c #5A9124",
"T  c #5E932B",
"R  c #5B8532",
"E  c #5D823B",
"W  c #62962D",
"Q  c #689736",
"!  c #6DA238",
"~  c #70A43C",
"^  c #618243",
"/  c #69844E",
"(  c #6B8256",
")  c #72875E",
"_  c #72A640",
"`  c #74A841",
"'  c #7EB647",
"]  c #768567",
"[  c #7B8A6C",
"{  c #7E807E",
"}  c #F68517",
"|  c #F68719",
" . c #F68A1C",
".. c #C9832D",
"X. c #D7892C",
"o. c #F78F22",
"O. c #F79125",
"+. c #F69529",
"@. c #F89529",
"#. c #F7982D",
"$. c #F79332",
"%. c #F69A31",
"&. c #F7993D",
"*. c #958859",
"=. c #81BB46",
"-. c #82BC4A",
";. c #85BA52",
":. c #8DBC5E",
">. c #92BD56",
",. c #82847F",
"<. c #839372",
"1. c #BAB767",
"2. c #DD9147",
"3. c #DD9843",
"4. c #CD855F",
"5. c #C4A459",
"6. c #EFAC50",
"7. c #F9A758",
"8. c #E1A266",
"9. c #F9AD64",
"0. c #86C24B",
"q. c #88C54D",
"w. c #8DD546",
"e. c #8FD54A",
"r. c #91D64C",
"t. c #92DA4C",
"y. c #8AC354",
"u. c #8DC159",
"i. c #93CB5E",
"p. c #92D452",
"a. c #96DC52",
"s. c #99DF54",
"d. c #9BDB5D",
"f. c #9AE055",
"g. c #9DE15A",
"h. c #92C560",
"j. c #95C169",
"k. c #99C76B",
"l. c #9FDC63",
"z. c #9ED36B",
"x. c #AAC661",
"c. c #A1D56D",
"v. c #A4DD6D",
"b. c #B4D761",
"n. c #A1CE74",
"m. c #A4D277",
"M. c #A6DA70",
"N. c #ACDB74",
"B. c #AADB7C",
"V. c #A2E262",
"C. c #A7E36A",
"Z. c #ACE574",
"A. c #F5C07D",
"S. c #7F8281",
"D. c #838582",
"F. c #878984",
"G. c #888A85",
"H. c #848889",
"J. c #8B8D89",
"K. c #8E908C",
"L. c #91938E",
"P. c #969E8E",
"I. c #939592",
"U. c #969994",
"Y. c #999B97",
"T. c #9B9D9A",
"R. c #9FA19D",
"E. c #AEA189",
"W. c #A1A29E",
"Q. c #A6B597",
"!. c #A9BB98",
"~. c #A4A5A2",
"^. c #A6A9A4",
"/. c #A9AAA6",
"(. c #ADAEAA",
"). c #AEB1AC",
"_. c #B2B3AF",
"`. c #B4B5B2",
"'. c #B6B9B2",
"]. c #BABCB6",
"[. c #BCBEB9",
"{. c #C78888",
"}. c #D49C9A",
"|. c #EDB580",
" X c #F2B880",
".X c #DBB9B7",
"XX c #A6C682",
"oX c #AFDD82",
"OX c #ACC591",
"+X c #B6D09D",
"@X c #B5E485",
"#X c #B9E58D",
"$X c #B9E98B",
"%X c #BEE597",
"&X c #BFD2AB",
"*X c #BEC0BA",
"=X c #D1D682",
"-X c #F5C08C",
";X c #F8C48B",
":X c #F7CC94",
">X c #C3EB9D",
",X c #CBC8A5",
"<X c #C1C3BD",
"1X c #D8CCB9",
"2X c #CBD9BD",
"3X c #CEEFAD",
"4X c #C4C5C2",
"5X c #C7C9C4",
"6X c #CACBC6",
"7X c #CDCDCB",
"8X c #D2C8C3",
"9X c #CED0CC",
"0X c #D2D3CE",
"qX c #D4D5D2",
"wX c #D6D8D4",
"eX c #D9DAD6",
"rX c #DCDDDA",
"tX c #E2DCD9",
"yX c #D6E4C8",
"uX c #DFE0DD",
"iX c #E0E1DE",
"pX c #E4E5E2",
"aX c #E6E8E5",
"sX c #E9E9E7",
"dX c #EBECEA",
"fX c #EFF0EF",
"gX c #F0F1EF",
"hX c #F3F4F2",
"jX c #FCFCFB",
"kX c None",
/* pixels */
"kXkXkXkXkXkXkXkXkXkXkXkXkXkXkXkXkXkXkXkXkXkXkXkXkXkXkXkXkXkXkXkXkXkXkXkXkXkXkXkXkXkXkXkXkXkXkXkX",
"kXkXkXkXkXkXkXkXkXkXkXkXkXkXkXkXkXkXkXkXkXkXkXkXkXkXkXkXkXkXkXkXkXkXkXkXkXkXkXkXkXkXkXkXkXkXkXkX",
"kXkXkXkXkXkXkXkXkXkXkXkXkXkXkXkXkXkXkXkXkXkXkXkXkXkXkXkXkXkXkXkXkXkXkXkXkXkXkXkXkXkXkXkXkXkXkXkX",
"kXkXkXkXkXkXkXkXkXkXkXkXkXkXkXkXkXkXkXkXkXkXkXkXkXkXkXkXkXkXkXkXkXkXkXkXkXkXkXkXkXkXkXkXkXkXkXkX",
"kXkXkXkXkXkXkXkXkXkXkXkXkXkXkXkXkXkXkXkXkXkXkXkXkXkXkXkXkXkXkXkXkXkXkXkXkXkXkXkXkXkXkXkXkXkXkXkX",
"kXkXkXkXkXkXkXkXkXkXkXkXkXkXkXkXkXkXkXkXkXkXkXkXkXkXkXkXkXkXkXkXkXkXkXkXkXkXkXkXkXkXkXkXkXkXkXkX",
"kXkXkXkXkXkXkXkXkXkXkXkXkXkXkXkXkXkXkXkXkXkXkXkXkXkXkXkXkXkXkXkXkXkXkXkXkXkXkXkXkXkXkXkXkXkXkXkX",
"kXkXkXkXkXkXkXkXkXkXkXkXkXkXkXkXkXkXkXkXkXkXkXkXkXkXkXkXkXkXkXkXkXkXkXkXkXkXkXkXkXkXkXkXkXkXkXkX",
"kXkXkXkXkXkXkXkXkXkXkXkXkXkXkXkXkXkXkXkXkXkXkXkXkXkXkXkXkXkXkXkXkXkXkXkXkXkXkXkXkXkXkXkXkXkXkXkX",
"kXkXkXkXkXkXkXkXkXkXkXkXkXkXkXkXkXkXkXkXkXkXkXkXkXkXkXkXkXkXkXkXkXkXkXkXkXkXkXkXkXkXkXkXkXkXkXkX",
"kXkXkXkXkXkXkXkXkXkXkXkXkXkXkXkXkXkXkXkXkXkXkXkXkXkXkXkXkXkXkXkXkXkXkXkXkXkXkXkXkXkXkXkXkXkXkXkX",
"kXkXkXkXkXkXkXkXkXkXkXkXkXkXkXkXkXkXkXkXkXkXkXkXkXkXkXkXkXkXkXkXkXkXkXkXkXkXkXkXkXkXkXkXkXkXkXkX",
"kXkXkXkXkXkXkXkXkXkXkXkXkXkXkXkXkXkXkXkXkXkXkXkXkXkXkXkXkXkXkXkXkXkXkXkXkXkXkXkXkXkXkXkXkXkXkXkX",
"kXkXkXkXkXkXkXkXkXkXJ.G.G.G.G.G.G.G.G.G.G.G.G.G.G.G.G.G.G.G.G.G.G.G.G.G.G.J.kXkXkXkXkXkXkXkXkXkX",
"kXkXkXkXkXkXkXkXkXK.7XeXrXrXrXrXrXrXrXrXuXiXiXiXiXiXiXuXrXrXrXrXrXrXrXrXeX7XK.kXkXkXkXkXkXkXkXkX",
"kXkXkXkXkXkXkXkXJ.].qX4X<XG.6 8 r t u i p s d ,.F.J.K.I.U.T.R.~./.].4X4X4X0X].J.kXkXkXkXkXkXkXkX",
"kXkXkXkXkXkXkXkXJ.wX5X(.r q y i i i 0 & E R U P P U R E ^ ( ,.F.K.^.`.<X4X4XeXJ.kXkXkXkXkXkXkXkX",
"kXkXkXkXkXkXkXkXY.rXG.6 r u u e % P ~ :.k.m.oX#X$XB.z.h.;.! P E ] J.I.).*X4XeXW.kXkXkXkXkXkXkXkX",
"kXkXkXkXkXkXkXG.].<X6 t u w * Q j.%X$XZ.C.V.g.f.f.g.V.V.C.Z.N.;.W U [ K.Y.5X0X[.J.kXkXkXkXkXkXkX",
"kXkXkXkXkXkXkXJ.qXU.q y V n 8.;X=Xf.a.f.f.f.f.f.f.f.f.s.a.t.a.d.v.u.I ) L.].7XwXJ.kXkXkXkXkXkXkX",
"kXkXkXkXkXkXkXK.pXi r N M |.7.|  .6.b.s.p.q.-.' ' -.0.e.a.t.r.e.w.d.z.T / /.7XiXL.kXkXkXkXkXkXkX",
"kXkXkXkXkXkXkX).qX6 9 m -X&.}  .o.@.%.5.>.c.#X3X3X#Xc.-.=.a.a.a.t.t.s.M.Y <.wXeX_.kXkXkXkXkXkXkX",
"kXkXkXkXkXkXJ.7X(.r v 2.9.} | o.O.#.X.3.:X,X!.P.P.!.+X>Xi.0.f.a.t.r.w.d.-.R 9XqX9XJ.kXkXkXkXkXkX",
"kXkXkXkXkXkXG.pX,.t b  X$.}  .O.+.%...A.E.G.K.W.(.).^.Q.@X' a.t.r.e.w.r.z.P [.qXpXJ.kXkXkXkXkXkX",
"kXkXkXkXkXkXW.pXr t ; fXdXsXpXpXpXpX4XwX_.`.qX].<X].sXyXn.0.a.t.t.r.w.r.c.P /.rXiX~.kXkXkXkXkXkX",
"kXkXkXkXkXJ.4X4Xt 6 > 7XpXwXqXqXrXpXsXqXqXrXdX5X6X8X1XXXy.a.a.t.t.r.e.l.y.U J.sXwX4XJ.kXkXkXkXkX",
"kXkXkXkXkXJ.iXY.y 4 4 Y.rXqXeXpXdXhXgXdXrXqX7X6X{.K G D 1.a.t.t.t.r.a.M.~ 7 I.pX6XuXJ.kXkXkXkXkX",
"kXkXkXkXkXL.dXp u > 5 `.(.aXhXsXpXrXeXrXiXpXaXsXc c c c z F x.t.t.d.z.` OX5 4XwX*XdXI.kXkXkXkXkX",
"kXkXkXkXkX].eXy t : 5 Y.6X~.6XrXqXqXwXrXuXpXpXaXz z z z z z k 4.N.i._ &XT.D.aX<X*XiX].kXkXkXkXkX",
"kXkXkXkXJ.eX).i T.<XrX6X(.).U.W.[.eXiXuXiXpXpXaXz x x x x H S l g *.2XF.D.pX6X*X*X0XwXJ.kXkXkXkX",
"kXkXkXkXJ.gXL.,.qXsXhXhXaX)._.[.).W.`.4X7XwXiXsXJ S A Z l h f C .X0Xp I.rX4X*X*X[.<XfXG.kXkXkXkX",
"kXkXkXkX/.dX[.L.d ].hXdXeX_.2 i R.7X5X<X[.].`._.f j B C L }.tX(.p y _.qX<X*X*X[.[.].dX^.kXkXkXkX",
"kXkXkXJ.9XrX4X6X[.F._.'.U.{ : ; < 5 D.T.(.<XqXaXaXqX4X_.R.F.6 s [.eX4X<X*X*X[.]._.].rX7XJ.kXkXkX",
"kXkXkXJ.dX9X5XH.rX_.D.u F.'.4 < > : > > < < 2 4 4 8 u d J.~.7X4X_.*X*X*X*X[.[.^.u 7X6XsXJ.kXkXkX",
"kXkXkXG.hXrX5X5X6X[.J.J.I.U.Y.T.~.^./.(.`.].[.4X4X[.`.(.(.`.<X*X*X*X*X[.[.[.].'.(.].eXgXF.kXkXkX",
"kXkXkXt /.pXjXjXjXjXjXjXjXjXjXjXjXjXjXjXjXjXjXjXjXjXjXjXjXjXjXjXjXjXjXjXjXjXjXjXjXjXiX/.r kXkXkX",
"kXkXkX+ 3 p F.G.G.G.G.G.G.G.G.G.G.G.G.G.G.G.G.G.G.G.G.G.G.G.G.G.G.G.G.G.G.G.G.G.G.F.s r o kXkXkX",
"kXkXkXo + @ @ @ @ @ @ # # # - - ; , ; ; - - - - ; 6 d d d d d d s d d D.{ d d r < < < < o kXkXkX",
"kXkXkXo @ @ @ @ @ @ @ # # # - ; , , ; - - - - - ; a O D.D.O S.O { O D.H.O O { d < < < < o kXkXkX",
"kXkXkXo @ @ @ @ @ @ @ # # # - ; , ; ; - - - - - ; 8 d d d d d s s d D.d d d d r < < 1 > o kXkXkX",
"kXkXkXX + # # = = - - - - ; , < < , , ; ; ; : , , < 3 4 3 1 < < < 4 4 1 < 1 1 1 1 4 1 #   kXkXkX",
"kXkXkXkXX o o o + + @ @ @ # - - - # # # # # # $ - ; , , : ; ; ; : > : : : : : : + o o . kXkXkXkX",
"kXkXkXkXkXkXkXo o o o o o o o o o o o o o o o o o o o o o o o o o o o o o o o o o kXkXkXkXkXkXkX",
"kXkXkXkXkXkXkXkXkXkXkXkXkXkXkXkXkXkXkXkXkXkXkXkXkXkXkXkXkXkXkXkXkXkXkXkXkXkXkXkXkXkXkXkXkXkXkXkX",
"kXkXkXkXkXkXkXkXkXkXkXkXkXkXkXkXkXkXkXkXkXkXkXkXkXkXkXkXkXkXkXkXkXkXkXkXkXkXkXkXkXkXkXkXkXkXkXkX",
"kXkXkXkXkXkXkXkXkXkXkXkXkXkXkXkXkXkXkXkXkXkXkXkXkXkXkXkXkXkXkXkXkXkXkXkXkXkXkXkXkXkXkXkXkXkXkXkX",
"kXkXkXkXkXkXkXkXkXkXkXkXkXkXkXkXkXkXkXkXkXkXkXkXkXkXkXkXkXkXkXkXkXkXkXkXkXkXkXkXkXkXkXkXkXkXkXkX",
"kXkXkXkXkXkXkXkXkXkXkXkXkXkXkXkXkXkXkXkXkXkXkXkXkXkXkXkXkXkXkXkXkXkXkXkXkXkXkXkXkXkXkXkXkXkXkXkX"
};
