/* XPM */
static char * info_xpm[] = {
"48 48 598 2",
"  	c None",
". 	c #525255",
"+ 	c #9A9AA0",
"@ 	c #BDBDC6",
"# 	c #D6D6E0",
"$ 	c #E1E1EE",
"% 	c #E4E4F2",
"& 	c #DFDFED",
"* 	c #D0D0DD",
"= 	c #B3B3BF",
"- 	c #86868F",
"; 	c #3B3B3E",
"> 	c #6D6D70",
", 	c #C1C1C7",
"' 	c #EAEAF5",
") 	c #EAEAF4",
"! 	c #E8E8F3",
"~ 	c #E6E6F3",
"{ 	c #E3E3F1",
"] 	c #E2E2F1",
"^ 	c #DFDFF0",
"/ 	c #DEDEEF",
"( 	c #ADADB9",
"_ 	c #4B4B4F",
": 	c #000000",
"< 	c #AFAFB5",
"[ 	c #EDEDF6",
"} 	c #F0F0F7",
"| 	c #F1F1F8",
"1 	c #EFEFF7",
"2 	c #EBEBF5",
"3 	c #E0E0F1",
"4 	c #DEDEF0",
"5 	c #DDDDEF",
"6 	c #DCDDEF",
"7 	c #9595A0",
"8 	c #4F4F51",
"9 	c #D4D4DA",
"0 	c #F3F3F8",
"a 	c #F6F6FA",
"b 	c #F8F8FB",
"c 	c #F7F7FB",
"d 	c #F5F5FA",
"e 	c #E9E9F4",
"f 	c #E5E5F3",
"g 	c #E1E1F1",
"h 	c #DEDFF0",
"i 	c #DCDCEF",
"j 	c #DBDCEF",
"k 	c #BDBECD",
"l 	c #262629",
"m 	c #505052",
"n 	c #DEDEE5",
"o 	c #F4F4F9",
"p 	c #F9F9FC",
"q 	c #FBFBFD",
"r 	c #ECECF5",
"s 	c #E4E4F3",
"t 	c #DFE0F0",
"u 	c #DCDEF0",
"v 	c #DBDCEE",
"w 	c #DBDBEF",
"x 	c #DADBEE",
"y 	c #C7C8D9",
"z 	c #252528",
"A 	c #D5D5DB",
"B 	c #F1F1F9",
"C 	c #FCFCFD",
"D 	c #FDFDFE",
"E 	c #F8F8FC",
"F 	c #F3F3F9",
"G 	c #EEEEF7",
"H 	c #E7E8F4",
"I 	c #E2E3F2",
"J 	c #DFE0F1",
"K 	c #DDDFF0",
"L 	c #DADDEF",
"M 	c #DADCEE",
"N 	c #D9DBEE",
"O 	c #BDBFCF",
"P 	c #B3B3B8",
"Q 	c #F2F2F9",
"R 	c #E8E8F4",
"S 	c #E5E6F3",
"T 	c #E3E3F3",
"U 	c #E0E1F1",
"V 	c #DDDEF0",
"W 	c #DBDDEF",
"X 	c #D8DBEE",
"Y 	c #9496A2",
"Z 	c #737375",
"` 	c #FAFAFC",
" .	c #E9E9F5",
"..	c #E3E4F3",
"+.	c #E1E1F2",
"@.	c #DBDDF0",
"#.	c #D9DCEE",
"$.	c #D8DAEE",
"%.	c #D7DAEE",
"&.	c #3B3C41",
"*.	c #C5C5CA",
"=.	c #FBFBFC",
"-.	c #F9F9FB",
";.	c #F0F0F8",
">.	c #ECECF6",
",.	c #E7E7F4",
"'.	c #E1E2F2",
").	c #D8DCEE",
"!.	c #D7DBED",
"~.	c #D6DAED",
"{.	c #D6DBEE",
"].	c #A8AAB8",
"^.	c #5B5B5D",
"/.	c #F2F2F8",
"(.	c #EDEEF7",
"_.	c #EBEBF6",
":.	c #E6E6F4",
"<.	c #D7DBEC",
"[.	c #D6DBEC",
"}.	c #D6DAEC",
"|.	c #D6DAEE",
"1.	c #D6D9EE",
"2.	c #202124",
"3.	c #A3A3A7",
"4.	c #FFFFFF",
"5.	c #F3F4F9",
"6.	c #EFEFF8",
"7.	c #EBECF6",
"8.	c #E5E6F4",
"9.	c #E1E3F2",
"0.	c #DDDFEF",
"a.	c #D8DCED",
"b.	c #D7DCEC",
"c.	c #D6DCEC",
"d.	c #D5DBED",
"e.	c #D5DAEE",
"f.	c #73757F",
"g.	c #C7C7CD",
"h.	c #F4F4FA",
"i.	c #ECECF7",
"j.	c #E9EAF5",
"k.	c #E5E5F4",
"l.	c #DEE2F0",
"m.	c #DADEEE",
"n.	c #D7DEEC",
"o.	c #D5DBEC",
"p.	c #D5DCED",
"q.	c #D5DBEE",
"r.	c #A7AAB9",
"s.	c #FAFAFB",
"t.	c #E8E9F5",
"u.	c #E1E4F2",
"v.	c #DBE0EF",
"w.	c #D8DFED",
"x.	c #D5DDEB",
"y.	c #D5DCEC",
"z.	c #C3C6D9",
"A.	c #EAEAF3",
"B.	c #F6F6FB",
"C.	c #F5F5FB",
"D.	c #EFF0F8",
"E.	c #EAEBF6",
"F.	c #E4E6F3",
"G.	c #DDE1EF",
"H.	c #D9E0ED",
"I.	c #D6DFEB",
"J.	c #D4DCEC",
"K.	c #D4DAEE",
"L.	c #D0D3E9",
"M.	c #FEFEFE",
"N.	c #F2F3FA",
"O.	c #F0F1F8",
"P.	c #E5E7F4",
"Q.	c #DEE2EF",
"R.	c #D9E1EE",
"S.	c #D6E1EB",
"T.	c #D4DEEB",
"U.	c #D4DDEC",
"V.	c #D4D8EE",
"W.	c #E8E8F1",
"X.	c #EEEEF6",
"Y.	c #F5F5F9",
"Z.	c #F7F7FA",
"`.	c #FDFDFD",
" +	c #E9E7E6",
".+	c #DFE4F0",
"++	c #D9E3EC",
"@+	c #D6E2EA",
"#+	c #D4E0EA",
"$+	c #D4DEEC",
"%+	c #D4DAED",
"&+	c #D0D4E9",
"*+	c #D9D9E2",
"=+	c #F1F1F7",
"-+	c #EFEDE8",
";+	c #F2F3F9",
">+	c #EAEAF0",
",+	c #E3E7F2",
"'+	c #DEE5EF",
")+	c #D8E4EB",
"!+	c #D5E4EA",
"~+	c #D4E3EA",
"{+	c #D3DFEB",
"]+	c #D4DCED",
"^+	c #C3C9DA",
"/+	c #BFBFC6",
"(+	c #F3F3F5",
"_+	c #EDEBE7",
":+	c #F5F6FA",
"<+	c #F1F2F9",
"[+	c #E8E6E5",
"}+	c #EAECF5",
"|+	c #E6E7F3",
"1+	c #E0E4EF",
"2+	c #DCE5EC",
"3+	c #D7E7EA",
"4+	c #D5E7EA",
"5+	c #D4E5EA",
"6+	c #D3E0EB",
"7+	c #D3DDED",
"8+	c #A8ADBC",
"9+	c #94949A",
"0+	c #EAEBF4",
"a+	c #ECEDF4",
"b+	c #EEEFF6",
"c+	c #F1F2F8",
"d+	c #F2F3F8",
"e+	c #D1D0D1",
"f+	c #EFF0F7",
"g+	c #EEEFF7",
"h+	c #ECEDF6",
"i+	c #E2E0DF",
"j+	c #E5E8F3",
"k+	c #E2E6F1",
"l+	c #DDE4ED",
"m+	c #DAE6EB",
"n+	c #D6E7EA",
"o+	c #D5E9E9",
"p+	c #D3E7EA",
"q+	c #D3DDEC",
"r+	c #747780",
"s+	c #49494B",
"t+	c #E5E8F0",
"u+	c #E8EBF2",
"v+	c #E9ECF2",
"w+	c #EAEDF4",
"x+	c #EBEDF4",
"y+	c #EDEEF5",
"z+	c #C3C3C4",
"A+	c #EDEFF6",
"B+	c #EDEEF6",
"C+	c #EBEDF5",
"D+	c #E9EBF5",
"E+	c #DADAD7",
"F+	c #E0E4EE",
"G+	c #DCE4EC",
"H+	c #DAE5EB",
"I+	c #D4E9E9",
"J+	c #D3EAE9",
"K+	c #D3E0EC",
"L+	c #D2DCED",
"M+	c #202023",
"N+	c #B8B8C1",
"O+	c #E6E6F2",
"P+	c #E3E7EF",
"Q+	c #E3EBEF",
"R+	c #E4EBF0",
"S+	c #E6ECF1",
"T+	c #E6EAF1",
"U+	c #E6EBF2",
"V+	c #E2E4E4",
"W+	c #E7EBF3",
"X+	c #E7EAF3",
"Y+	c #E6EAF3",
"Z+	c #E5E9F3",
"`+	c #E4E7F3",
" @	c #E2E7F0",
".@	c #A4A7AD",
"+@	c #DCE2EC",
"@@	c #D9E4EA",
"#@	c #D7E6EA",
"$@	c #D5EAE9",
"%@	c #D4EBE9",
"&@	c #D3ECE9",
"*@	c #D3E3EA",
"=@	c #D2DEEC",
"-@	c #A8ADBB",
";@	c #5A5A5E",
">@	c #E4E5F1",
",@	c #E4E6F2",
"'@	c #E1E8EE",
")@	c #E0EAED",
"!@	c #E1EAEE",
"~@	c #E1E9EE",
"{@	c #E1E9F0",
"]@	c #E3EAEF",
"^@	c #D3D5CB",
"/@	c #E1E8F1",
"(@	c #E1E7F0",
"_@	c #E0E6F0",
":@	c #DEE5F0",
"<@	c #DDE4F0",
"[@	c #DBE2EF",
"}@	c #DEE4ED",
"|@	c #9FA5A5",
"1@	c #D7E2E9",
"2@	c #D6E5E9",
"3@	c #D4E9E8",
"4@	c #D4EDE9",
"5@	c #D3EEE9",
"6@	c #D3E7E9",
"7@	c #D3E1EC",
"8@	c #38383E",
"9@	c #A2A4AC",
"0@	c #E3E4F1",
"a@	c #E3E5F1",
"b@	c #DEE8EC",
"c@	c #DEEAEC",
"d@	c #DDE9EC",
"e@	c #DCE8EB",
"f@	c #DEE8EB",
"g@	c #A4ACA9",
"h@	c #DAE5EC",
"i@	c #DAE4EC",
"j@	c #D9E2EC",
"k@	c #D8E1EA",
"l@	c #D8DFEA",
"m@	c #D7DFEA",
"n@	c #CACCC2",
"o@	c #CDD1CA",
"p@	c #D5E2E8",
"q@	c #D4E7E9",
"r@	c #D3E1EB",
"s@	c #D2DDEC",
"t@	c #9296A2",
"u@	c #C8CAD5",
"v@	c #E1E3F0",
"w@	c #DCE3EA",
"x@	c #DBE7EB",
"y@	c #DAE7EA",
"z@	c #DAE8EB",
"A@	c #A0AAA6",
"B@	c #D8E3EA",
"C@	c #D7E1E9",
"D@	c #D6DFE9",
"E@	c #D6DEE8",
"F@	c #DAE2E8",
"G@	c #C9CEC0",
"H@	c #D5E2E9",
"I@	c #D5E6E9",
"J@	c #D4EAE9",
"K@	c #D3E2EA",
"L@	c #D3DFEC",
"M@	c #BAC1D1",
"N@	c #2E2E31",
"O@	c #CFD0DE",
"P@	c #DEE0F0",
"Q@	c #DBE2EA",
"R@	c #DAE5EA",
"S@	c #DAE4EA",
"T@	c #C9CFC1",
"U@	c #CDD4CA",
"V@	c #D8E2EA",
"W@	c #D7E3E9",
"X@	c #D6E1E9",
"Y@	c #DCE7E9",
"Z@	c #949F9B",
"`@	c #D5E5E9",
" #	c #D3E8E9",
".#	c #D2DFEC",
"+#	c #C5CCDC",
"@#	c #1D1D20",
"##	c #2A2A2E",
"$#	c #C2C3D0",
"%#	c #DCDEEE",
"&#	c #DCDDEE",
"*#	c #D8DCE9",
"=#	c #D8DFE8",
"-#	c #D4DDE4",
";#	c #9FA7A2",
">#	c #D0D8D3",
",#	c #CFD6D1",
"'#	c #CFD6CF",
")#	c #D1D8CF",
"!#	c #DCE8E8",
"~#	c #949E9B",
"{#	c #D4E2E3",
"]#	c #D3E3E7",
"^#	c #D3E0E7",
"/#	c #D2DEE8",
"(#	c #BBC3D2",
"_#	c #1D1D1F",
":#	c #9999A4",
"<#	c #D3D4E5",
"[#	c #BDBABB",
"}#	c #B8B7B5",
"|#	c #C3C0B4",
"1#	c #BEBFB7",
"2#	c #C2C4B8",
"3#	c #C8C9B7",
"4#	c #CECEB9",
"5#	c #D0CFB9",
"6#	c #C6C5B3",
"7#	c #CBCAB6",
"8#	c #CCCFCA",
"9#	c #CFD7DB",
"0#	c #D3DEEC",
"a#	c #969BA6",
"b#	c #3D3D42",
"c#	c #CBC1AB",
"d#	c #BAB6B8",
"e#	c #B4B4B6",
"f#	c #B6B4B6",
"g#	c #BDBBBB",
"h#	c #C0BEBB",
"i#	c #C7C3BB",
"j#	c #CEC9BC",
"k#	c #CFCABC",
"l#	c #CDCABB",
"m#	c #CAC8BA",
"n#	c #C8C6B9",
"o#	c #B5B197",
"p#	c #35383C",
"q#	c #ECE3C4",
"r#	c #D3C8A8",
"s#	c #CDC4A7",
"t#	c #CDC8BB",
"u#	c #CDCAC4",
"v#	c #C8C5C2",
"w#	c #C9C6C1",
"x#	c #CCC7B9",
"y#	c #CFC7B2",
"z#	c #CDC3A4",
"A#	c #D5CCAF",
"B#	c #D2C69D",
"C#	c #9C8C53",
"D#	c #F1DF9D",
"E#	c #F2E9C5",
"F#	c #F8F4E7",
"G#	c #F9F7EF",
"H#	c #F7F4EB",
"I#	c #EEE8D2",
"J#	c #EDE6CE",
"K#	c #F0EAD2",
"L#	c #F2ECD4",
"M#	c #E6DCB7",
"N#	c #DBCE9E",
"O#	c #BEAB66",
"P#	c #6F643A",
"Q#	c #F3E3AA",
"R#	c #E6D79F",
"S#	c #F3E3A8",
"T#	c #F3E4AD",
"U#	c #F0DE9C",
"V#	c #E9D488",
"W#	c #E0CB7B",
"X#	c #D9C374",
"Y#	c #D0BB6F",
"Z#	c #C7B36B",
"`#	c #A9985A",
" $	c #8D7F4B",
".$	c #F8F3E1",
"+$	c #F8F0D5",
"@$	c #E6D69F",
"#$	c #D6C896",
"$$	c #D0C292",
"%$	c #CEBE86",
"&$	c #C5B474",
"*$	c #C2AF6A",
"=$	c #BBA864",
"-$	c #BFB07B",
";$	c #C5BA8F",
">$	c #CFC08E",
",$	c #9E8E54",
"'$	c #F0DC96",
")$	c #F6EBC5",
"!$	c #FBF8EE",
"~$	c #FCFBF5",
"{$	c #FDFBF6",
"]$	c #F9F4DE",
"^$	c #F3EAC7",
"/$	c #F1E6C1",
"($	c #ECE2BE",
"_$	c #EBE2C1",
":$	c #DFD4AD",
"<$	c #BDAA64",
"[$	c #887C52",
"}$	c #F3E6B6",
"|$	c #E3D296",
"1$	c #F1E1A8",
"2$	c #F4E7B9",
"3$	c #F2E4B1",
"4$	c #EFDD9C",
"5$	c #E7D288",
"6$	c #DFC97A",
"7$	c #CCB76D",
"8$	c #C4B069",
"9$	c #A29565",
"0$	c #90855B",
"a$	c #F7EFD6",
"b$	c #F4EAC7",
"c$	c #E6D8AA",
"d$	c #D4C697",
"e$	c #D1C59C",
"f$	c #CEC190",
"g$	c #C4B275",
"h$	c #BDAA67",
"i$	c #B6A361",
"j$	c #AE9D5D",
"k$	c #C8BD9A",
"l$	c #D1C599",
"m$	c #998B52",
"n$	c #EBD792",
"o$	c #F1E5BA",
"p$	c #F9F5E6",
"q$	c #FCFAF4",
"r$	c #FBF9EE",
"s$	c #F9F6EA",
"t$	c #F5EED7",
"u$	c #ECE3C0",
"v$	c #EADFBC",
"w$	c #E8E0C3",
"x$	c #D2C492",
"y$	c #B8A462",
"z$	c #837646",
"A$	c #F0E6BE",
"B$	c #DFD099",
"C$	c #EDE0B1",
"D$	c #EEE2B3",
"E$	c #EBDCA7",
"F$	c #E6D597",
"G$	c #DDC982",
"H$	c #D3BF72",
"I$	c #CDB86D",
"J$	c #C9B46A",
"K$	c #BCAA65",
"L$	c #9F8F55",
"M$	c #72673C",
"N$	c #F6F1DE",
"O$	c #F1E9CB",
"P$	c #E6DCB9",
"Q$	c #D4C9A3",
"R$	c #CCC19A",
"S$	c #C3B480",
"T$	c #B9A86C",
"U$	c #B2A060",
"V$	c #AC9B5C",
"W$	c #A59558",
"X$	c #BFB38B",
"Y$	c #CCBF92",
"Z$	c #92824E",
"`$	c #897F58",
" %	c #E4D39B",
".%	c #F1EACE",
"+%	c #F8F6EB",
"@%	c #F8F5E9",
"#%	c #EFE7CC",
"$%	c #EBE2C2",
"%%	c #E7DEBC",
"&%	c #E7DEC1",
"*%	c #D9D0A9",
"=%	c #C4B57F",
"-%	c #A19056",
";%	c #13110A",
">%	c #29271E",
",%	c #D1C185",
"'%	c #E0D198",
")%	c #E0D2A0",
"!%	c #E0D19D",
"~%	c #DAC98F",
"{%	c #D0BC7A",
"]%	c #C7B46C",
"^%	c #C3B068",
"/%	c #BEAA66",
"(%	c #A79759",
"_%	c #3D361F",
":%	c #050402",
"<%	c #030303",
"[%	c #454237",
"}%	c #9E9572",
"|%	c #AEA47F",
"1%	c #AA9E73",
"2%	c #928553",
"3%	c #847847",
"4%	c #6B6242",
"5%	c #35301C",
"6%	c #282415",
"7%	c #020201",
"8%	c #2A2A2A",
"9%	c #838383",
"0%	c #767676",
"a%	c #242424",
"b%	c #191919",
"c%	c #161616",
"d%	c #626262",
"e%	c #707070",
"f%	c #1F1F1F",
"g%	c #050505",
"                                                                                                ",
"                                                                                                ",
"                                  . + @ # $ % & * = - ;                                         ",
"                              > , ' ' ) ' ! ~ % { ] ^ / ( _ :                                   ",
"                            < [ } | | } 1 2 ! ~ % { 3 4 5 6 7 :                                 ",
"                        8 9 1 0 a b c d } 2 e ! f % g h 6 i j k l                               ",
"                      m n | o p q q b o 1 r ' e ~ s ] t u v w x y z                             ",
"                      A B d p C D C E F 1 G r ' H f I J K L M N N O :                           ",
"                    P Q F b q C C q c Q | 1 [ ' R S T U V W M X N X Y :                         ",
"                  Z B F a ` q q q ` a F B } G 2  .~ ..+.h @.#.X $.X %.&.                        ",
"                  *.F d b p ` =.` -.c d F ;.G >.' ,.f '.h @.).!.!.~.{.].:                       ",
"                ^.| F d c p q C q p c a o /.;.(._. .:.T U u X <.[.}.|.1.2.                      ",
"                3.| F d b ` C 4.C ` -.c d 5./.6.G 7. .8.9.0.a.b.c.[.d.e.f.:                     ",
"                g.| F d c p q C q ` p b c d h.Q | 6.i.j.k.l.m.n.c.o.p.q.r.:                     ",
"                n | F d c b ` =.q s.-.b c a d 5.Q | 1 >.t.u.v.w.x.x.y.e.z.:                     ",
"                A.} B F d b b s.` ` -.-.E b c B.C.F Q D.E.F.G.H.I.x.J.K.L.:                     ",
"                [ 1 | Q o c b b -.-.-.M.M.p 4.c 4.F N.O.i.P.Q.R.S.T.U.K.V.:                     ",
"                W.G X.| Q Y.a Z.`.`.`.b `.Z.`.a `.`./. +_.P..+++@+#+$+%+&+:                     ",
"                *+r G 1 =+o d a -+Z.Z.M.c 4.c 4.o ;+/.>+E.,+'+)+!+~+{+]+^+:                     ",
"                /+' r [ 1 | /.Y.(+_+:+d Y.o F F <+O.[+}+|+1+2+3+4+5+6+7+8+:                     ",
"                9+e ) 0+a+b+} c+d+e+0 ;+/.| O.f+g+h+i+j+k+l+m+n+o+p+6+q+r+:                     ",
"                s+|+! t+u+v+w+x+y+z+b+A+B+h+C+}+D+0+E+F+G+H+3+I+J+p+K+L+M+                      ",
"                  N+O+P+Q+R+S+T+U+V+W+W+X+Y+Z+`+k+ @.@+@@@#@$@%@&@*@=@-@:                       ",
"                  ;@>@,@'@)@!@~@{@]@^@/@(@_@:@<@[@}@|@1@2@3@4@5@6@7@L+8@:                       ",
"                    9@0@a@b@c@d@e@f@g@h@i@j@k@l@m@n@o@p@q@%@5@&@r@s@t@:                         ",
"                    : u@v@w@x@y@z@e@A@B@1@C@D@E@F@G@H@I@J@4@&@K@L@M@: :                         ",
"                      N@O@P@P@Q@R@S@T@U@V@W@1@X@Y@Z@`@q@J@ #7@.#+#@#:                           ",
"                        ##$#%#&#*#=#-#;#>#,#'#)#!#~#{#]#^#/#L@(#_#:                             ",
"                          : :#v <#[#}#|#1#2#3#4#5#6#7#8#9#0#a#: :                               ",
"                            : b#c#d#e#f#g#h#i#j#k#l#m#n#o#p#: :                                 ",
"                                q#r#s#t#u#v#w#x#y#z#A#B#C#:                                     ",
"                                D#E#F#G#H#I#J#K#L#M#N#O#P#:                                     ",
"                                Q#R#S#T#Q#U#V#W#X#Y#Z#`# $:                                     ",
"                                .$+$@$#$$$%$&$*$=$-$;$>$,$:                                     ",
"                                '$)$!$~${$]$^$/$($_$:$<$[$:                                     ",
"                                }$|$1$2$3$4$5$6$X#7$8$9$0$:                                     ",
"                                a$b$c$d$e$f$g$h$i$j$k$l$m$:                                     ",
"                                n$o$p$q$r$s$t$u$v$w$x$y$z$:                                     ",
"                                A$B$C$D$E$F$G$H$I$J$K$L$M$:                                     ",
"                                N$O$P$Q$R$S$T$U$V$W$X$Y$Z$:                                     ",
"                                `$ %.%+%@%#%$%%%&%*%=%-%;%:                                     ",
"                                >%,%'%)%!%~%{%]%^%/%(%_%:%                                      ",
"                                  <%[%}%|%1%2%3%4%5%6%7%:                                       ",
"                                      : 8%9%0%a%b%: :                                           ",
"                                        c%d%e%f%g%:                                             ",
"                                          : : : :                                               ",
"                                                                                                ",
"                                                                                                "};
