/* XPM */
static char *control-center2[] = {
/* columns rows colors chars-per-pixel */
"32 32 148 2",
"   c #000000",
".  c #02070C",
"X  c #04080A",
"o  c #080807",
"O  c #0C0C0B",
"+  c #010C16",
"@  c #090C10",
"#  c #0C1217",
"$  c #100F0F",
"%  c #11100F",
"&  c #151514",
"*  c #141619",
"=  c #17191B",
"-  c #191816",
";  c #1B1C1C",
":  c #0C263E",
">  c #192023",
",  c #1B252D",
"<  c #172B3B",
"1  c #192B3C",
"2  c #22211E",
"3  c #232525",
"4  c #242529",
"5  c #21282B",
"6  c #292824",
"7  c #2C2B29",
"8  c #2B2E31",
"9  c #24313F",
"0  c #2D3135",
"q  c #2F363B",
"w  c #2F393B",
"e  c #302E2C",
"r  c #34322F",
"t  c #333333",
"y  c #363B3F",
"u  c #3B3A35",
"i  c #3A3A39",
"p  c #0B2946",
"a  c #112C42",
"s  c #1E3344",
"d  c #1C364C",
"f  c #2C3A42",
"g  c #343E47",
"h  c #2F4658",
"j  c #32414B",
"k  c #3C4042",
"l  c #334453",
"z  c #264662",
"x  c #304D67",
"c  c #395168",
"v  c #413D39",
"b  c #42413E",
"n  c #41484E",
"m  c #4A4741",
"M  c #4B4945",
"N  c #4F4D4A",
"B  c #4D565D",
"V  c #555146",
"C  c #52514F",
"Z  c #50585E",
"A  c #595754",
"S  c #5E5C57",
"D  c #585858",
"F  c #455767",
"G  c #43596A",
"H  c #486278",
"J  c #5B6869",
"K  c #576B76",
"L  c #586B79",
"P  c #63615D",
"I  c #656462",
"U  c #6A6760",
"Y  c #6B6A65",
"T  c #6E6E6C",
"R  c #6A737B",
"E  c #73716C",
"W  c #747370",
"Q  c #7E7C74",
"!  c #7E7D7A",
"~  c #5D758B",
"^  c #667C8E",
"/  c #637D94",
"(  c #6E8395",
")  c #6C8499",
"_  c #708597",
"`  c #71879B",
"'  c #74899A",
"]  c #7B8D9D",
"[  c #758DA2",
"{  c #7B93A7",
"}  c #86847E",
"|  c #858482",
" . c #8A8782",
".. c #8C8A85",
"X. c #8C8C8B",
"o. c #838F9A",
"O. c #80919D",
"+. c #908E86",
"@. c #918F89",
"#. c #94938D",
"$. c #9A968E",
"%. c #999791",
"&. c #9C9A94",
"*. c #8597A6",
"=. c #859AAC",
"-. c #8A99A6",
";. c #899DAF",
":. c #859EB4",
">. c #8DA3B4",
",. c #8FA5B8",
"<. c #99A4AE",
"1. c #97A7B6",
"2. c #90A7B9",
"3. c #9CADBC",
"4. c #A29E97",
"5. c #A5A29B",
"6. c #ACA9A3",
"7. c #B1AFA7",
"8. c #B4B2AB",
"9. c #B9B6AE",
"0. c #BCB9B3",
"q. c #99AEC1",
"w. c #A0B2C2",
"e. c #ACBBC9",
"r. c #BDCBD7",
"t. c #C2BEB2",
"y. c #C6C3BC",
"u. c #CAC6BE",
"i. c #CCC8BE",
"p. c #CCC9C2",
"a. c #D1CDC5",
"s. c #D2CFC8",
"d. c #D4D0C7",
"f. c #D5D2CB",
"g. c #D9D6CD",
"h. c #DCD8CF",
"j. c #D6D5D3",
"k. c #D9D6D1",
"l. c #DDDAD5",
"z. c #DBDCDB",
"x. c #E2DFD7",
"c. c #E1DFDA",
"v. c #E5E2DD",
"b. c #E5E5E2",
"n. c #E9E7E1",
"m. c #EFEEEE",
"M. c #F1F0EC",
"N. c None",
/* pixels */
"N.N.N.N.N.N.N.N.N.N.N.N.N.N.N.N.N.N.N.N.N.N.N.N.N.N.N.N.N.N.N.N.",
"N.N.N.N.N.N.N.N.N.        N.N.N.N.N.N.N.N.N.N.N.N.N.N.N.N.N.N.N.",
"N.N.N.N.N.N.                N.N.N.N.N.N.N.N.N.N.N.N.N.N.N.N.N.N.",
"N.N.N.N.      I W ;           N.N.N.N.N.N.N.  X #   N.N.N.N.N.N.",
"N.N.N.N.  - % ..z.8.U &         N.N.N.N.N.  X B X.t   N.N.N.N.N.",
"N.N.N.    O o & I y.s.! O         N.N.N.    F j.z.8.7   N.N.N.N.",
"N.N.              A k.8.-         N.N.  . F k.x.j.7.g o N.N.N.N.",
"  N.  O O         P l.6.O         N.N.  k z.b.b.l.E @   N.N.N.N.",
"      X.&.*     C p.t...O           N.  D m.b.v.#.*   N.N.N.N.N.",
"      ! z.%.i I l.x.9.| ; o         N.  T M.l.&.5   N.N.N.N.N.N.",
"      & &.b.j.n.x.t.5.y.0.+.m O       i g.0.Q t   N.N.N.N.N.N.N.",
"        & | z.f.#.m S 0.f.s.p.%.r o 3 0.&.e       N.N.N.N.N.N.N.",
"          o ; 7 $   o v $.g.g.a.i.#.P W -   N.N.    N.N.N.N.N.N.",
"N.                      $ Y p.x.p.a.p.$.u o               N.N.N.",
"N.N.                      o v 5.l.l.p.d.a.+.u o           N.N.N.",
"N.N.N.                      O v Y u.v.h.i.d.u.} ; o             ",
"N.N.N.N.                  o C Q 6 r #.x.v.d.i.d.t.U 2           ",
"N.N.N.N.N.N.    N.  o y R n V V O   $ M 0.n.v.i.i.s.8.Y -       ",
"N.N.N.N.N.N.N.N.  3 R *.;.{ F 4         ; E f.n.h.i.i.9.%.2     ",
"N.N.N.N.N.N.N.  8 o.] ) ;./ z +             t  .x.v.8.v &.Y     ",
"N.N.N.N.N.N.  0 ] ) [ 2.=.x p +               O M 6.0...p.P     ",
"N.N.N.N.N.  q *.( ' ;.2.c : 1     N.              2 U 4.Q -     ",
"N.N.N.N.  t *.) [ :.2.H : l 4   N.N.                  O o       ",
"N.N.N.  3 <.' [ >.2.~ : s k O   N.N.N.                          ",
"N.N.N.o R 1.*.q.q./ a 1 g *   N.N.N.N.N.N.                      ",
"N.N.N.* e.e.r.e.) d a g -   N.N.N.N.N.N.N.N.N.                  ",
"N.N.  , e.w.3.` h < j ;   N.N.N.N.N.N.N.N.N.N.N.                ",
"N.N.N.* ] ' / L g f >     N.N.N.N.N.N.N.N.N.N.N.N.N.N.N.N.N.N.N.",
"N.N.N.  9 G L J w &     N.N.N.N.N.N.N.N.N.N.N.N.N.N.N.N.N.N.N.N.",
"N.N.N.N.  @ > ; O     N.N.N.N.N.N.N.N.N.N.N.N.N.N.N.N.N.N.N.N.N.",
"N.N.N.N.N.        N.N.N.N.N.N.N.N.N.N.N.N.N.N.N.N.N.N.N.N.N.N.N.",
"N.N.N.N.N.N.N.N.N.N.N.N.N.N.N.N.N.N.N.N.N.N.N.N.N.N.N.N.N.N.N.N."
};
