/* XPM */
static char * screenshot_xpm[] = {
"54 49 169 2",
"  	c None",
". 	c #FFFFFF",
"+ 	c #CEC7C6",
"@ 	c #848284",
"# 	c #A5A2A5",
"$ 	c #E7E7E7",
"% 	c #DEDFDE",
"& 	c #F7F7F7",
"* 	c #EFEBEF",
"= 	c #ADAAAD",
"- 	c #CECBC6",
"; 	c #BDBAB5",
"> 	c #B5B2B5",
", 	c #EFEFEF",
"' 	c #FFFBFF",
") 	c #F7F3F7",
"! 	c #BDBABD",
"~ 	c #BDBEBD",
"{ 	c #B5B2AD",
"] 	c #C6C3BD",
"^ 	c #E7E3E7",
"/ 	c #ADAEAD",
"( 	c #A59E9C",
"_ 	c #6B6D6B",
": 	c #949294",
"< 	c #949694",
"[ 	c #7B7D7B",
"} 	c #9C9E9C",
"| 	c #736D6B",
"1 	c #4A494A",
"2 	c #525152",
"3 	c #63615A",
"4 	c #5A5D5A",
"5 	c #525552",
"6 	c #7B797B",
"7 	c #B5B6B5",
"8 	c #101010",
"9 	c #292C29",
"0 	c #181C18",
"a 	c #E7E3DE",
"b 	c #9C9A94",
"c 	c #212021",
"d 	c #313031",
"e 	c #BDB6B5",
"f 	c #8C8684",
"g 	c #080808",
"h 	c #313431",
"i 	c #8C8A84",
"j 	c #4A4D4A",
"k 	c #393839",
"l 	c #424542",
"m 	c #292829",
"n 	c #B5AEAD",
"o 	c #101410",
"p 	c #6B696B",
"q 	c #737173",
"r 	c #393C39",
"s 	c #A5A6A5",
"t 	c #9C9694",
"u 	c #7B7573",
"v 	c #5A5552",
"w 	c #636163",
"x 	c #848684",
"y 	c #636563",
"z 	c #ADAAA5",
"A 	c #84827B",
"B 	c #424142",
"C 	c #5A595A",
"D 	c #737573",
"E 	c #7B7973",
"F 	c #212421",
"G 	c #CECFC6",
"H 	c #ADA6A5",
"I 	c #4A4942",
"J 	c #000400",
"K 	c #080C08",
"L 	c #73716B",
"M 	c #423C39",
"N 	c #292821",
"O 	c #6B6963",
"P 	c #6B6563",
"Q 	c #D6D7D6",
"R 	c #CECFCE",
"S 	c #8C8A8C",
"T 	c #8C8E8C",
"U 	c #211C18",
"V 	c #000000",
"W 	c #C6C3C6",
"X 	c #9C9A9C",
"Y 	c #948E84",
"Z 	c #181818",
"` 	c #DEDBDE",
" .	c #C6C7C6",
"..	c #635D5A",
"+.	c #52514A",
"@.	c #847D7B",
"#.	c #948E8C",
"$.	c #6B716B",
"%.	c #7B7D73",
"&.	c #6B7173",
"*.	c #63696B",
"=.	c #394142",
"-.	c #5A6163",
";.	c #4A514A",
">.	c #A5A29C",
",.	c #424139",
"'.	c #52595A",
").	c #525D5A",
"!.	c #525952",
"~.	c #393C31",
"{.	c #424942",
"].	c #8C8E84",
"^.	c #7B756B",
"/.	c #6B6D63",
"(.	c #5A5952",
"_.	c #4A4542",
":.	c #42494A",
"<.	c #4A5152",
"[.	c #393C42",
"}.	c #313839",
"|.	c #313429",
"1.	c #293029",
"2.	c #292C21",
"3.	c #424539",
"4.	c #736D63",
"5.	c #313029",
"6.	c #313C39",
"7.	c #424D4A",
"8.	c #42454A",
"9.	c #293431",
"0.	c #212418",
"a.	c #394542",
"b.	c #63656B",
"c.	c #4A4D52",
"d.	c #212018",
"e.	c #393831",
"f.	c #182018",
"g.	c #182021",
"h.	c #292418",
"i.	c #5A5D63",
"j.	c #636963",
"k.	c #73756B",
"l.	c #52555A",
"m.	c #293031",
"n.	c #312C21",
"o.	c #181810",
"p.	c #313831",
"q.	c #080800",
"r.	c #212821",
"s.	c #6B655A",
"t.	c #524D4A",
"u.	c #313C42",
"v.	c #000800",
"w.	c #39454A",
"x.	c #E3DFDE",
"y.	c #F4F3F1",
"z.	c #212829",
"A.	c #FAF9F8",
"B.	c #5A554A",
"C.	c #000808",
"D.	c #313439",
"E.	c #081010",
"F.	c #C6BEBD",
"G.	c #4A4D42",
"H.	c #312C29",
"I.	c #424D52",
"J.	c #94928C",
"K.	c #39414A",
"L.	c #4A555A",
". . . . . . . . . . . . . . . . . . . . . . . . . . . . . . . . . . . . . . . . . . . . . . . . . . . . . . ",
". . . . . . . . . . . . . . . . . . . . . . . . . . . . . . . . . . . . . . . . . . . . . . . . . . . . . . ",
". . . . . . . . . . . . . . . . . . . . . . . . . . . . . . . . . . . . . . . . . . . . . . . . . . . . . . ",
". . . . . . . . . . . . . . . . . . . . . . . . . . . . . . . . . . . . . . . . . . . . . . . . . . . . . . ",
". . . . . . . . . . . . . . . . . . . . . . . . . . . . . . . . . . . . . . . . . . . . . . . . . . . . . . ",
". . . . . . . . . . . . . . . . . . . . . . . . . . . + @ @ @ @ @ @ @ @ + . . . . . . . . . . . . . . . . . ",
". . . . . . . . . . . . . . . . . . . . . . . . . . + # $ % & . & . * $ = - . . . . . . . . . . . . . . . . ",
". . . . . . . . . . . . . . . . . . . . . . . . . . ; > , & & . ' . ) , ! ! . . . . . . . . . . . . . . . . ",
". . . . . . . . . . . . . . . . . . . . . . . . . . = ! , & . . . . ) , ~ { . . . . . . . . . . . . . . . . ",
". . . . . . . . . . . . . . . . . . . . . . . . . ] # = * $ , . & . ^ * > / + . . . . . . . . . . . . . . . ",
". . . . . . . . . . . . . . . . . . . . . . . . . ( _ : < < < < < < < < : [ } . . . . . . . . . . . . . . . ",
". . . . . . . . . . . . . . . . . . . . . . . . . | 1 2 3 4 3 3 3 3 3 3 2 5 6 . . . . . . . . . . . . . . . ",
". . . . . . . . . . . . . . . . . . . . . . . . 7 8 9 0 [ ; a a a a ; b c d d e . . . . . . . . . . . . . . ",
". . . . . . . . . . . . . . . . . . . . . . . . f g h g { a a a a a a { g 9 g i . . . . . . . . . . . . . . ",
". . . . . . . . . . . . . . . . . . . . . . . . j g k d l 2 2 2 2 2 2 k m d g j . . . . . . . . . . . . . . ",
". . . . . . . . . . . . . . . . . . . . . . . n k o k p q q q q q q q 6 4 r o 9 . . . . . . . . . . . . . . ",
". . . . . . . . . . . . . . . . . . . . ] s t u j v 2 w x x x x x x x x y j h g u { i 2 9 w z . . . . . . . ",
". . . . . . . . . . . . . ] { { A B h h h 1 C D E 6 _ q # # # # # # # # # < p k m F 0 w F w l . . . . . . . ",
". . . . . . . . G H E I m J K K j 5 L [ 6 4 5 5 D : ~ ~ ~ ~ ~ ~ ~ ~ ~ ~ ~ ! : w y _ 4 M m 9 d . . . . . . . ",
". . . . . . e K N h j O _ O p _ P q p @ C Q ^ R w 7 > S T S S S S x x x x } # q y q 6 6 w l U x . . . . . . ",
". . . . . A V 1 y [ T E l y 5 w q [ : < B $ & % 5 W < S S S q S q S q S _ x : X _ q [ x x [ y v . . . . . . ",
". . . . . V Y E E E E r 6 F Z h q L k 4 5 ` Q  .p W : S : < t ..i +.x 4 6 _ x X q y D _ x _ p 0 . . . . . . ",
". . . . . V ( E E E E 3 @.r h 4 E r 9 C 4 j B _ # # S #.: _ t j [ l [ +.L 5 $.< S w q 2 5 4 D 0 . . . . . . ",
". . . . . V E ( ( b %.E E E E E +.F h y q 4 w 6 7 : T b x 5 [ r &.h *.=.-.;.+.5 T p y [ @ @ D V . . . . . . ",
". . . . . V E >.x T ( H ~ s A y ,.J r y [ D 4 S > f q '.j -.4 -.-.4 ).!.j h ~.{.{._ w D @ @ 6 V . . . . . . ",
". . . . . V E ].^.L /.O 3 (.+._.N 0 r y [ D 4 # i [ :.[ 4 <.:.=.=.=.=.[.}.|.1.2.r 3.p D @ @ 6 V . . . . . . ",
". . . . . V E ].^.L 4.O 3 (.+.l 5.F r y 6 D p >.[ 5 &.<.=.6.:.7.C '.8.:.=.}.9.1.0.h C q @ @ 6 V . . . . . . ",
". . . . . V E ].^.L 4.O 3 (.+.l 5.9 r y p _ < y 5 D :.r a.u q 5 j a.j *.b.c.=.1.9 d.e._ @ @ 6 V . . . . . . ",
". . . . . V ^.i ^.L 4.O 3 (.+.3.5.9 r y 6 _ T <.b.:.}.q <.l f.g V V K g.j q j =.9 N h...[ [ 6 V . . . . . . ",
". . . . . V ^.i ^.L 4.O 3 (.+.3.5.9 r y 6 _ i.-.c.}.O j.h g V J K 8 8 8 o 9.4 [.[.N d.I q q 6 V . . . . . . ",
". . . . . V ^.i k.L 4.O 3 (.+.3.5.9 r y 6 _ a.-.=.=.q r g 4 y _ d F F F 0 0 6.l.=.m.d.n.: : _ V . . . . . . ",
". . . . . V ^.i k.L 4.O 3 (.+.3.5.9 r w D _ r j }.*.a.o.4 . _ D [ h k h 9 F 9 j <.=.o.d.w w < V . . . . . . ",
". . . . . V ^.i k.L 4.O 3 (.+.,.5.9 r w D D r =.r [ p.q.w _ D , ) S y l r d r.[.w =.o 0.w C < V . . . . . . ",
". . . . . V ^.i k.L /.P 3 (.+.,.5.9 r w _ @ r 6.:.D 1.V y q [ ) & X X C j r 9 =.b.=.o 5.w 5 < V . . . . . . ",
". . . . . V ^.i L L /.P ..(.+.,.5.9 r w @ @ }.6.<.*.9 V 8 D @ 7 X s s y C l h 8.4 8.o 3.: : 4 V . . . . . . ",
". . . . . V ^.i L L /.s...(.t.,.5.m r 4 _ q d =.u.:.2.v.8 F k y X s < _ 4 1 h :.'.w.8 j 4 4 w V x.. . . . . ",
". . . . . V k.i L L /.s...(.t.,.5.m r p x : 9 =.6.:.m.o 8 F h l C y _ y $ l =.:.=.a.o _ S @ y V + y.. . . . ",
". . . . y.V k.i L L O s...(.t.,.5.m r 4 6 [ 9 d p.:.u.9 8 0 9 r j C 4 C j r '.=.=.6.Z [ q p l F + y.. . . . ",
". . . . x.V k.i L 4./.s...v t.,.5.m k p : : p 8 6.=.w.9.z.Z F d r l 1 l r c.c.=.w.o l x _ h d [ - A.. . . . ",
". . . . x.r 4 A L | O s.3 B.t.r F V V V V V V C.D.}.w.'.h h F F 9 h h }.c.c.:.=.8.E.J V V h @.F.x.. . . . . ",
". . . . y.< 2 5.M G.v v +._.,.H.r v p u E u L ..V 6.6.y _ r D.}.[.=.=.8.:.q 5 I.V 5 x J.>.{ ] x.. . . . . . ",
". . . . . y.e f _ 2 _.9 d.B (.O @ t < < J.T f A v K [.[.5 &.i.=.8.j :.w 6 <.7.K 1 i t H 7 ] - . . . . . . . ",
". . . . . . . x.- + +  .] F.; ; e e 7 { n z ( t J.| m m.[.K.=.w.c.&.L.a.:.[.V 2 : ( n ;  .x.. . . . . . . . ",
". . . . . . . . . . . A.A.y.y.x.x.- G - + F.e n H >.T 5 E.m.[.w.8.8.8.h 8 r @.>./ e ] - y.. . . . . . . . . ",
". . . . . . . . . . . . . . . . . . . . . x.- + F.; e { ( [ 5 h V o 5 O i n e ; ] - y.. . . . . . . . . . . ",
". . . . . . . . . . . . . . . . . . . . . . . y.x.G - + ] ~ ; ; F.F.] ] ] + - x.y.. . . . . . . . . . . . . ",
". . . . . . . . . . . . . . . . . . . . . . . . . . . y.x.x.x.G x.x.x.y.A.A.. . . . . . . . . . . . . . . . ",
". . . . . . . . . . . . . . . . . . . . . . . . . . . . . . . . . . . . . . . . . . . . . . . . . . . . . . ",
". . . . . . . . . . . . . . . . . . . . . . . . . . . . . . . . . . . . . . . . . . . . . . . . . . . . . . "};
